<svg width="122" height="87" viewBox="0 0 122 87" fill="none" xmlns="http://www.w3.org/2000/svg">
<path d="M20.7 44.136C17.788 44.136 15.196 43.544 12.924 42.36C10.684 41.208 8.92401 39.496 7.64401 37.224C6.39601 34.92 5.77201 32.104 5.77201 28.776C5.77201 26.792 6.02801 24.808 6.54001 22.824C7.05201 20.84 7.74001 18.936 8.60401 17.112C9.50001 15.288 10.492 13.608 11.58 12.072C11.1 10.152 10.86 8.072 10.86 5.832C10.86 4.136 11.052 2.52 11.436 0.983997C11.564 0.535997 11.788 0.311997 12.108 0.311997C12.364 0.311997 12.476 0.471997 12.444 0.791997C12.348 1.432 12.268 2.12 12.204 2.856C12.14 3.56 12.108 4.408 12.108 5.4C12.108 7.256 12.284 9.016 12.636 10.68C12.956 10.264 13.276 9.88 13.596 9.528C14.908 8.088 16.46 6.744 18.252 5.496C20.044 4.216 22.028 3.192 24.204 2.424C26.412 1.656 28.748 1.272 31.212 1.272C33.516 1.272 35.628 1.704 37.548 2.568C39.468 3.4 41.004 4.616 42.156 6.216C43.34 7.784 43.932 9.688 43.932 11.928C43.932 13.336 43.548 14.776 42.78 16.248C42.044 17.72 40.972 19.08 39.564 20.328C38.188 21.544 36.508 22.536 34.524 23.304C32.572 24.072 30.38 24.456 27.948 24.456C24.748 24.456 21.82 23.752 19.164 22.344C16.508 20.936 14.444 18.792 12.972 15.912C11.692 18.184 10.748 20.488 10.14 22.824C9.53201 25.16 9.22801 27.384 9.22801 29.496C9.22801 32.568 9.74001 35.064 10.764 36.984C11.788 38.904 13.196 40.312 14.988 41.208C16.812 42.136 18.892 42.6 21.228 42.6C25.388 42.6 29.036 41.544 32.172 39.432C35.34 37.352 37.948 34.12 39.996 29.736C40.38 29.736 40.572 29.88 40.572 30.168C38.588 34.904 35.868 38.408 32.412 40.68C28.988 42.984 25.084 44.136 20.7 44.136ZM15.036 12.696C14.62 13.272 14.22 13.864 13.836 14.472C14.956 17.096 16.668 19.208 18.972 20.808C21.276 22.408 24.172 23.208 27.66 23.208C29.868 23.208 31.836 22.872 33.564 22.2C35.324 21.528 36.796 20.632 37.98 19.512C39.196 18.392 40.124 17.16 40.764 15.816C41.404 14.44 41.724 13.064 41.724 11.688C41.724 9.992 41.26 8.504 40.332 7.224C39.436 5.944 38.204 4.952 36.636 4.248C35.068 3.512 33.292 3.144 31.308 3.144C29.324 3.144 27.324 3.56 25.308 4.392C23.324 5.224 21.436 6.36 19.644 7.8C17.884 9.24 16.348 10.872 15.036 12.696Z" fill="black"/>
<path d="M92.6802 76.5905C89.4162 76.5905 86.8562 75.5825 85.0002 73.5665C83.1762 71.5505 82.2642 68.6865 82.2642 64.9745C82.2642 62.6385 82.7442 60.2225 83.7042 57.7265C82.3602 56.7985 81.3842 55.7585 80.7762 54.6065C80.2002 53.4225 79.9122 51.9985 79.9122 50.3345C79.9122 48.1265 80.4082 46.1585 81.4002 44.4305C82.4242 42.7025 83.7842 41.2305 85.4802 40.0145C87.1762 38.7665 89.0802 37.8225 91.1922 37.1825C93.3042 36.5425 95.4482 36.2225 97.6242 36.2225C99.7682 36.2225 101.848 36.5585 103.864 37.2305C105.88 37.8705 107.672 38.8785 109.24 40.2545C110.84 41.5985 112.072 43.3105 112.936 45.3905C113.832 47.4705 114.216 49.9505 114.088 52.8305C115.592 51.9025 116.888 50.8945 117.976 49.8065C119.096 48.6865 119.912 47.6625 120.424 46.7345C120.584 46.4465 120.744 46.3025 120.904 46.3025C121.064 46.3025 121.16 46.4305 121.192 46.6865C121.256 46.9425 121.176 47.2465 120.952 47.5985C120.152 48.8465 119.16 50.0785 117.976 51.2945C116.824 52.5105 115.464 53.5985 113.896 54.5585C113.864 55.2625 113.752 56.0625 113.56 56.9585C113.4 57.8225 113.16 58.7345 112.84 59.6945C112.232 61.6465 111.256 63.6145 109.912 65.5985C108.6 67.5825 107.032 69.4065 105.208 71.0705C103.384 72.7345 101.4 74.0625 99.2562 75.0545C97.1122 76.0785 94.9202 76.5905 92.6802 76.5905ZM94.2642 58.7825C96.9522 58.7825 99.7842 58.3985 102.76 57.6305C105.768 56.8305 108.584 55.7425 111.208 54.3665C111.272 53.9505 111.304 53.5505 111.304 53.1665C111.304 52.7505 111.304 52.3505 111.304 51.9665C111.304 48.7025 110.728 45.9825 109.576 43.8065C108.456 41.6305 106.888 39.9985 104.872 38.9105C102.856 37.8225 100.504 37.2785 97.8162 37.2785C95.7362 37.2785 93.7682 37.5985 91.9122 38.2385C90.0882 38.8785 88.4562 39.7745 87.0162 40.9265C85.6082 42.0785 84.5042 43.4385 83.7042 45.0065C82.9042 46.5745 82.5042 48.3025 82.5042 50.1905C82.5042 51.0545 82.6162 51.9985 82.8402 53.0225C83.0962 54.0145 83.6722 54.9105 84.5682 55.7105C85.0162 54.7505 85.6242 53.6785 86.3922 52.4945C87.1602 51.2785 88.0402 50.0625 89.0322 48.8465C90.0562 47.5985 91.1442 46.4625 92.2962 45.4385C93.4802 44.4145 94.6962 43.5985 95.9442 42.9905C97.2242 42.3505 98.5042 42.0305 99.7842 42.0305C100.328 42.0305 100.872 42.0945 101.416 42.2225C101.992 42.3505 102.536 42.5745 103.048 42.8945C103.304 43.0545 103.432 43.1985 103.432 43.3265C103.432 43.4225 103.352 43.5025 103.192 43.5665C103.064 43.6305 102.888 43.6305 102.664 43.5665C102.248 43.4385 101.784 43.3745 101.272 43.3745C100.12 43.3745 98.9522 43.7265 97.7682 44.4305C96.5842 45.1025 95.4322 45.9985 94.3122 47.1185C93.1922 48.2065 92.1522 49.3905 91.1922 50.6705C90.2322 51.9185 89.3842 53.1505 88.6482 54.3665C87.9442 55.5505 87.4002 56.5585 87.0162 57.3905C88.9682 58.3185 91.3842 58.7825 94.2642 58.7825ZM93.0642 75.4385C94.8562 75.4385 96.6002 74.9905 98.2962 74.0945C100.024 73.1985 101.64 71.9825 103.144 70.4465C104.68 68.9105 106.04 67.1985 107.224 65.3105C108.408 63.4225 109.352 61.4865 110.056 59.5025C110.248 58.9585 110.424 58.3985 110.584 57.8225C110.744 57.2145 110.84 56.6385 110.872 56.0945C108.28 57.4705 105.512 58.5265 102.568 59.2625C99.6242 59.9985 96.8082 60.3665 94.1202 60.3665C91.1442 60.3665 88.5522 59.9345 86.3442 59.0705C85.3522 61.5985 84.8562 64.0785 84.8562 66.5105C84.8562 69.4865 85.6242 71.7265 87.1602 73.2305C88.7282 74.7025 90.6962 75.4385 93.0642 75.4385Z" fill="black"/>
<path d="M54.8929 55.272C54.1462 55.272 53.5062 55.0267 52.9729 54.536C52.4182 54.0667 52.1409 53.544 52.1409 52.968C52.1409 52.6907 52.2262 52.4133 52.3969 52.136C52.4396 52.0293 52.5142 51.9867 52.6209 52.008C52.7062 52.0293 52.7169 52.0933 52.6529 52.2C52.5249 52.4133 52.4609 52.616 52.4609 52.808C52.4609 53.1707 52.6529 53.4587 53.0369 53.672C53.4209 53.9067 53.9116 53.9813 54.5089 53.896C55.4902 53.768 56.3222 53.4053 57.0049 52.808C57.7089 52.2107 58.3062 51.4533 58.7969 50.536C59.3089 49.64 59.7356 48.7013 60.0769 47.72C60.0342 47.7413 59.9702 47.752 59.8849 47.752C59.7996 47.7733 59.7142 47.784 59.6289 47.784C59.5436 47.784 59.4476 47.784 59.3409 47.784C58.3596 47.784 57.5596 47.464 56.9409 46.824C56.3222 46.184 56.0129 45.3947 56.0129 44.456C56.0129 43.6667 56.2689 42.824 56.7809 41.928C57.2929 41.032 58.1356 40.1893 59.3089 39.4C59.7996 39.0587 60.3222 38.728 60.8769 38.408C61.4529 38.0667 62.0289 37.7253 62.6049 37.384C62.8609 36.3387 63.2342 35.4107 63.7249 34.6C64.2156 33.768 64.9196 33.2987 65.8369 33.192C66.2209 33.1493 66.5622 33.2133 66.8609 33.384C67.1809 33.5547 67.3409 33.8107 67.3409 34.152C67.3409 34.344 67.2342 34.5573 67.0209 34.792C66.8289 35.0267 66.5729 35.2507 66.2529 35.464C65.7836 35.8053 65.3356 36.1147 64.9089 36.392C64.5036 36.6693 64.0876 36.9573 63.6609 37.256C63.4689 37.7467 63.2662 38.3013 63.0529 38.92C62.8609 39.5387 62.6476 40.2213 62.4129 40.968H65.9009C66.5196 40.968 66.9462 40.9253 67.1809 40.84C67.4156 40.7547 67.5756 40.6693 67.6609 40.584C67.7036 40.5413 67.7356 40.5307 67.7569 40.552C67.7996 40.552 67.8209 40.5733 67.8209 40.616C67.7782 41.064 67.5649 41.3733 67.1809 41.544C66.8182 41.6933 66.4449 41.7893 66.0609 41.832C65.8689 42.5787 65.4956 43.3467 64.9409 44.136C64.3862 44.904 63.7356 45.5973 62.9889 46.216C62.2636 46.8347 61.5062 47.2827 60.7169 47.56C60.4396 48.5413 60.1089 49.512 59.7249 50.472C59.3409 51.432 58.8929 52.2853 58.3809 53.032C57.8902 53.7787 57.3142 54.3547 56.6529 54.76C56.0556 55.1013 55.4689 55.272 54.8929 55.272ZM63.9169 36.616C64.2796 36.3813 64.6316 36.1573 64.9729 35.944C65.3356 35.7093 65.6769 35.4747 65.9969 35.24C66.2956 35.0053 66.5089 34.7813 66.6369 34.568C66.7649 34.3547 66.8289 34.1627 66.8289 33.992C66.8289 33.672 66.6689 33.512 66.3489 33.512C66.1782 33.512 65.9756 33.5867 65.7409 33.736C65.5062 33.8853 65.2716 34.1413 65.0369 34.504C64.8662 34.76 64.6849 35.0693 64.4929 35.432C64.3222 35.7733 64.1302 36.168 63.9169 36.616ZM60.3009 46.984C60.5782 46.1733 60.8129 45.3733 61.0049 44.584C61.2182 43.7733 61.4209 43.0693 61.6129 42.472L61.8049 41.672C61.2289 41.7147 60.7062 41.8427 60.2369 42.056C59.7889 42.248 59.4582 42.6 59.2449 43.112C59.1382 43.3893 59.0849 43.6347 59.0849 43.848C59.0849 44.2107 59.2022 44.5093 59.4369 44.744C59.4796 44.7653 59.4582 44.7973 59.3729 44.84C59.3089 44.8613 59.2556 44.8507 59.2129 44.808C58.8929 44.5307 58.7329 44.136 58.7329 43.624C58.7329 42.9413 59.0209 42.3333 59.5969 41.8C60.1729 41.2453 60.8982 40.968 61.7729 40.968H61.9329L62.4449 38.088C61.9329 38.4507 61.4316 38.8347 60.9409 39.24C60.4502 39.6453 59.9702 40.072 59.5009 40.52C58.7969 41.2027 58.2849 41.8853 57.9649 42.568C57.6662 43.2293 57.5169 43.8373 57.5169 44.392C57.5169 45.1387 57.7516 45.7573 58.2209 46.248C58.7116 46.7387 59.3196 46.984 60.0449 46.984H60.3009ZM60.9089 46.888C61.6556 46.7173 62.3276 46.3653 62.9249 45.832C63.5222 45.2987 64.0236 44.68 64.4289 43.976C64.8556 43.2507 65.1436 42.536 65.2929 41.832C64.8662 41.8107 64.3862 41.7787 63.8529 41.736C63.3196 41.672 62.7756 41.64 62.2209 41.64L62.1569 41.928C61.9862 42.5467 61.7942 43.2933 61.5809 44.168C61.3889 45.0427 61.1649 45.9493 60.9089 46.888Z" fill="black"/>
</svg>
